# xmcd
#
# Track frame offsets: 
#        187
#        16122
#        31195
#        42955
#        55705
#        70490
#        81145
#        97482
#        112952
#        127427
#
# Disc length: 1907 seconds
#
# Revision: 0
# Processed by: cddbd v1.4PL0 Copyright (c) Steve Scherf et al.
# Submitted via: ExactAudioCopy v0.90a11
#
DISCID=8707710a
DTITLE=John Schneider - White Christmas
DYEAR=1900
DGENRE=
TTITLE0=White Christmas
TTITLE1=O Little Town Of Bethlehem
TTITLE2=Winter Wonderland
TTITLE3=Silver Bells
TTITLE4=Silent Night, Holy Night
TTITLE5=The Christmas Song (Chestnuts Roasting On An Open Fire)
TTITLE6=Rudolph, The Red Nosed Reindeer
TTITLE7=Katey's Christmas Card
TTITLE8=Have Yourself A Merry Little Christmas
TTITLE9=It's Christmas
EXTD=
EXTT0=
EXTT1=
EXTT2=
EXTT3=
EXTT4=
EXTT5=
EXTT6=
EXTT7=
EXTT8=
EXTT9=
PLAYORDER=
